<svg width="18" height="18" viewBox="0 0 18 18" fill="none" xmlns="http://www.w3.org/2000/svg">
<path d="M8.15659 2.68682H2.59035C2.16857 2.68682 1.76405 2.85438 1.4658 3.15263C1.16755 3.45088 1 3.85539 1 4.27718V15.4096C1 15.8314 1.16755 16.2359 1.4658 16.5342C1.76405 16.8324 2.16857 17 2.59035 17H13.7228C14.1446 17 14.5491 16.8324 14.8474 16.5342C15.1456 16.2359 15.3132 15.8314 15.3132 15.4096V9.84341M14.1204 1.49406C14.4368 1.17772 14.8658 1 15.3132 1C15.7605 1 16.1896 1.17772 16.5059 1.49406C16.8223 1.8104 17 2.23945 17 2.68682C17 3.1342 16.8223 3.56325 16.5059 3.87959L8.95176 11.4338L5.77106 12.2289L6.56624 9.04824L14.1204 1.49406Z" stroke="white" stroke-linecap="round" stroke-linejoin="round"/>
</svg>
