<svg width="18" height="18" viewBox="0 0 18 18" fill="none" xmlns="http://www.w3.org/2000/svg">
<path d="M4.2 6.6V1H13.8V6.6M4.2 13.8H2.6C2.17565 13.8 1.76869 13.6314 1.46863 13.3314C1.16857 13.0313 1 12.6243 1 12.2V8.2C1 7.77565 1.16857 7.36869 1.46863 7.06863C1.76869 6.76857 2.17565 6.6 2.6 6.6H15.4C15.8243 6.6 16.2313 6.76857 16.5314 7.06863C16.8314 7.36869 17 7.77565 17 8.2V12.2C17 12.6243 16.8314 13.0313 16.5314 13.3314C16.2313 13.6314 15.8243 13.8 15.4 13.8H13.8M4.2 10.6H13.8V17H4.2V10.6Z" stroke="white" stroke-linecap="round" stroke-linejoin="round"/>
</svg>
