<svg width="0" height="0" class="hidden">
  <symbol fill="none" xmlns="http://www.w3.org/2000/svg" viewBox="0 0 18 18" id="edit">
    <path d="M8.15659 2.68682H2.59035C2.16857 2.68682 1.76405 2.85438 1.4658 3.15263C1.16755 3.45088 1 3.85539 1 4.27718V15.4096C1 15.8314 1.16755 16.2359 1.4658 16.5342C1.76405 16.8324 2.16857 17 2.59035 17H13.7228C14.1446 17 14.5491 16.8324 14.8474 16.5342C15.1456 16.2359 15.3132 15.8314 15.3132 15.4096V9.84341M14.1204 1.49406C14.4368 1.17772 14.8658 1 15.3132 1C15.7605 1 16.1896 1.17772 16.5059 1.49406C16.8223 1.8104 17 2.23945 17 2.68682C17 3.1342 16.8223 3.56325 16.5059 3.87959L8.95176 11.4338L5.77106 12.2289L6.56624 9.04824L14.1204 1.49406Z" stroke="currentcolor" stroke-linecap="round" stroke-linejoin="round"></path>
  </symbol>
  <symbol fill="none" xmlns="http://www.w3.org/2000/svg" viewBox="0 0 19 18" id="key">
    <path d="M12.2962 5.62548L15.2397 2.68199M16.9217 1L15.2397 2.68199L16.9217 1ZM8.8397 9.08197C9.27394 9.51043 9.61913 10.0206 9.85541 10.583C10.0917 11.1454 10.2144 11.749 10.2164 12.359C10.2185 12.9691 10.0998 13.5735 9.86732 14.1375C9.63481 14.7014 9.29304 15.2139 8.86168 15.6452C8.43032 16.0766 7.9179 16.4184 7.35391 16.6509C6.78992 16.8834 6.18551 17.002 5.57548 17C4.96545 16.9979 4.36185 16.8752 3.79943 16.639C3.23701 16.4027 2.72689 16.0575 2.29843 15.6232C1.45586 14.7509 0.989636 13.5825 1.00017 12.3697C1.01071 11.1569 1.49717 9.99676 2.35477 9.13916C3.21237 8.28156 4.3725 7.7951 5.58529 7.78456C6.79807 7.77402 7.96648 8.24025 8.83885 9.08281L8.8397 9.08197ZM8.8397 9.08197L12.2962 5.62548L8.8397 9.08197ZM12.2962 5.62548L14.8192 8.14847L17.7627 5.20498L15.2397 2.68199L12.2962 5.62548Z" stroke="currentcolor" stroke-linecap="round" stroke-linejoin="round"></path>
  </symbol>
  <symbol fill="none" xmlns="http://www.w3.org/2000/svg" viewBox="0 0 18 15" id="mail">
    <path d="M17 2.6C17 1.72 16.28 1 15.4 1H2.6C1.72 1 1 1.72 1 2.6M17 2.6V12.2C17 13.08 16.28 13.8 15.4 13.8H2.6C1.72 13.8 1 13.08 1 12.2V2.6M17 2.6L9 8.2L1 2.6" stroke="currentcolor" stroke-linecap="round" stroke-linejoin="round"></path>
  </symbol>
  <symbol fill="none" xmlns="http://www.w3.org/2000/svg" viewBox="0 0 18 18" id="phone">
    <path d="M16.9995 13.0029V15.4163C17.0004 15.6403 16.9545 15.8621 16.8648 16.0674C16.775 16.2727 16.6434 16.4569 16.4783 16.6084C16.3132 16.7599 16.1183 16.8752 15.906 16.947C15.6938 17.0187 15.4689 17.0454 15.2457 17.0252C12.7702 16.7562 10.3923 15.9103 8.30312 14.5555C6.35937 13.3204 4.71141 11.6724 3.47627 9.72864C2.11669 7.62993 1.27059 5.24046 1.00653 2.75383C0.986426 2.53137 1.01286 2.30716 1.08416 2.09547C1.15546 1.88379 1.27005 1.68926 1.42065 1.52429C1.57124 1.35932 1.75454 1.22751 1.95886 1.13726C2.16319 1.04701 2.38407 1.00029 2.60744 1.00008H5.02086C5.41128 0.996235 5.78977 1.13449 6.0858 1.38907C6.38182 1.64365 6.57517 1.99718 6.62981 2.38378C6.73168 3.15613 6.92059 3.91447 7.19295 4.64435C7.30118 4.93229 7.32461 5.24523 7.26045 5.54607C7.19629 5.84692 7.04723 6.12307 6.83093 6.3418L5.80925 7.36348C6.95446 9.37752 8.62206 11.0451 10.6361 12.1903L11.6578 11.1687C11.8765 10.9524 12.1527 10.8033 12.4535 10.7391C12.7544 10.675 13.0673 10.6984 13.3552 10.8066C14.0851 11.079 14.8435 11.2679 15.6158 11.3698C16.0066 11.4249 16.3635 11.6217 16.6186 11.9228C16.8737 12.2239 17.0093 12.6083 16.9995 13.0029Z" stroke="currentColor" stroke-linecap="round" stroke-linejoin="round"></path>
  </symbol>
  <symbol fill="none" xmlns="http://www.w3.org/2000/svg" viewBox="0 0 18 18" id="print">
    <path d="M4.2 6.6V1H13.8V6.6M4.2 13.8H2.6C2.17565 13.8 1.76869 13.6314 1.46863 13.3314C1.16857 13.0313 1 12.6243 1 12.2V8.2C1 7.77565 1.16857 7.36869 1.46863 7.06863C1.76869 6.76857 2.17565 6.6 2.6 6.6H15.4C15.8243 6.6 16.2313 6.76857 16.5314 7.06863C16.8314 7.36869 17 7.77565 17 8.2V12.2C17 12.6243 16.8314 13.0313 16.5314 13.3314C16.2313 13.6314 15.8243 13.8 15.4 13.8H13.8M4.2 10.6H13.8V17H4.2V10.6Z" stroke="currentcolor" stroke-linecap="round" stroke-linejoin="round"></path>
  </symbol>
</svg>